:FULLY-SPECIFIED
:FORCE-ALL-JOINTS-BE-3DOF
:DEGREES
33
root 8.11033 15.7404 -31.9774 7.81564 -7.22964 -6.58983
lfemur -45.1308 9.20569 -12.6851
ltibia 37.724 -0 0
lfoot -0.69261 7.13885 -0.00757473
ltoes -5.39189 0 0
rfemur 21.3601 5.7778 28.677
rtibia 0.0321922 -0 0
rfoot -1.11456 1.69103 -0.127665
rtoes -24.9276 0 0
lowerback -8.16353 1.22223 2.72618
upperback -1.24852 1.23664 3.88683
thorax 3.24394 0.627057 2.63661
lowerneck -20.673 -4.81975 -12.6894
upperneck 15.209 -5.9363 15.2715
head 9.05105 -1.97934 6.60774
lclavicle -3.14018e-14 -4.8901e-14 0
lhumerus -43.8972 -5.93242 91.0624
lradius 23.6421 -0 0
lwrist 0.92493 0 0
lhand 4.40152 -17.9989 0.101593
lfingers 7.12502 -0 0
lthumb 29.7834 9.4686 0.0543952
rclavicle -3.14018e-14 -4.8901e-14 0
rhumerus -44.7107 19.9136 -92.4947
rradius 57.1948 -0 0
rwrist -27.4529 0 0
rhand -31.2627 -33.7941 -0.0293378
rfingers 7.12502 -0 0
rthumb -4.53681 -63.7237 -0.0284836
34
root 8.13047 15.7325 -31.8289 7.82265 -7.47245 -6.62703
lfemur -45.1029 9.23554 -12.6505
ltibia 37.496 -0 0
lfoot -0.376986 7.11609 -0.00498645
ltoes -5.18701 0 0
rfemur 22.0049 5.81725 28.5814
rtibia -0.327496 0 0
rfoot -1.22839 1.66514 -0.119841
rtoes -25.5563 0 0
lowerback -8.25636 1.23944 2.74135
upperback -1.24204 1.25214 3.91745
thorax 3.30228 0.634414 2.66274
lowerneck -20.7385 -4.80517 -12.666
upperneck 15.2755 -5.90966 15.2077
head 9.07764 -1.96866 6.58657
lclavicle -3.14018e-14 -4.8901e-14 0
lhumerus -44.0388 -6.04558 91.1894
lradius 23.553 -0 0
lwrist 0.75056 0 0
lhand 4.82456 -17.8841 0.084905
lfingers 7.12502 -0 0
lthumb 30.1894 9.53389 0.0452345
rclavicle -3.14018e-14 -4.8901e-14 0
rhumerus -44.8788 19.9389 -92.7176
rradius 57.1337 -0 0
rwrist -27.3918 0 0
rhand -31.2052 -33.9656 -0.0258152
rfingers 7.12502 -0 0
rthumb -4.48125 -63.8966 -0.0250644
35
root 8.15061 15.7246 -31.6803 7.82583 -7.7032 -6.65354
lfemur -45.0482 9.25406 -12.63
ltibia 37.2698 -0 0
lfoot -0.0919293 7.09659 -0.00269228
ltoes -4.98843 0 0
rfemur 22.5723 5.85552 28.4791
rtibia -0.609289 0 0
rfoot -1.35168 1.62688 -0.110461
rtoes -26.1389 0 0
lowerback -8.3415 1.25325 2.74937
upperback -1.23617 1.26424 3.9452
thorax 3.35589 0.640011 2.68955
lowerneck -20.8022 -4.79052 -12.6429
upperneck 15.3429 -5.88313 15.144
head 9.10435 -1.95814 6.5655
lclavicle -3.14018e-14 -4.8901e-14 0
lhumerus -44.1573 -6.16003 91.3075
lradius 23.4715 -0 0
lwrist 0.586198 0 0
lhand 5.21168 -17.7801 0.0688702
lfingers 7.12502 -0 0
lthumb 30.5609 9.59277 0.0364646
rclavicle -3.14018e-14 -4.8901e-14 0
rhumerus -45.0373 19.9564 -92.9256
rradius 57.0592 -0 0
rwrist -27.3282 0 0
rhand -31.1501 -34.1179 -0.0222445
rfingers 7.12502 -0 0
rthumb -4.42804 -64.0502 -0.0215982
36
root 8.17074 15.7167 -31.5317 7.8249 -7.92097 -6.66869
lfemur -44.9655 9.2606 -12.6243
ltibia 37.0457 -0 0
lfoot 0.160503 7.08055 -0.000759299
ltoes -4.79673 0 0
rfemur 23.0574 5.89234 28.3698
rtibia -0.808415 0 0
rfoot -1.48483 1.57558 -0.0994929
rtoes -26.6721 0 0
lowerback -8.41842 1.26343 2.74983
upperback -1.23095 1.27271 3.96988
thorax 3.40442 0.643747 2.71706
lowerneck -20.8639 -4.77582 -12.62
upperneck 15.4113 -5.85675 15.0805
head 9.13114 -1.94779 6.54456
lclavicle -3.14018e-14 -4.8901e-14 0
lhumerus -44.2511 -6.27584 91.4158
lradius 23.3984 -0 0
lwrist 0.432594 0 0
lhand 5.56043 -17.6878 0.0538036
lfingers 7.12502 -0 0
lthumb 30.8956 9.64482 0.0282616
rclavicle -3.14018e-14 -4.8901e-14 0
rhumerus -45.1853 19.9657 -93.1175
rradius 56.9705 -0 0
rwrist -27.2623 0 0
rhand -31.0976 -34.2498 -0.0186746
rfingers 7.12502 -0 0
rthumb -4.37737 -64.1834 -0.0181326
37
root 8.19088 15.7088 -31.3831 7.81952 -8.12482 -6.6718
lfemur -44.8532 9.25452 -12.6343
ltibia 36.8241 -0 0
lfoot 0.378253 7.06817 0.000748084
ltoes -4.61249 0 0
rfemur 23.4551 5.92739 28.253
rtibia -0.920105 0 0
rfoot -1.62827 1.51056 -0.0869156
rtoes -27.1526 0 0
lowerback -8.48658 1.26975 2.74231
upperback -1.22642 1.27736 3.99131
thorax 3.44754 0.645519 2.74526
lowerneck -20.9235 -4.76107 -12.5974
upperneck 15.4806 -5.83054 15.0171
head 9.15801 -1.93765 6.52377
lclavicle -3.14018e-14 -4.8901e-14 0
lhumerus -44.3186 -6.39307 91.5137
lradius 23.3341 -0 0
lwrist 0.290496 0 0
lhand 5.86834 -17.6077 0.0400144
lfingers 7.12502 -0 0
lthumb 31.1912 9.68963 0.020798
rclavicle -3.14018e-14 -4.8901e-14 0
rhumerus -45.3221 19.9667 -93.2922
rradius 56.8671 -0 0
rwrist -27.1938 0 0
rhand -31.0479 -34.3601 -0.0151551
rfingers 7.12502 -0 0
rthumb -4.32942 -64.2949 -0.0147159
38
root 8.21102 15.7009 -31.2345 7.8094 -8.31381 -6.6622
lfemur -44.7099 9.2352 -12.661
ltibia 36.6054 -0 0
lfoot 0.559264 7.05965 0.00176945
ltoes -4.43628 0 0
rfemur 23.7604 5.96029 28.1284
rtibia -0.939586 0 0
rfoot -1.7824 1.43115 -0.0727186
rtoes -27.5772 0 0
lowerback -8.54545 1.27198 2.72641
upperback -1.22264 1.27797 4.00928
thorax 3.48494 0.645224 2.77416
lowerneck -20.9809 -4.74631 -12.5752
upperneck 15.5508 -5.80456 14.9541
head 9.18492 -1.92772 6.50316
lclavicle -3.14018e-14 -4.8901e-14 0
lhumerus -44.3584 -6.51178 91.6005
lradius 23.2791 -0 0
lwrist 0.160655 0 0
lhand 6.13294 -17.5405 0.0278011
lfingers 7.12502 -0 0
lthumb 31.4453 9.72678 0.0142401
rclavicle -3.14018e-14 -4.8901e-14 0
rhumerus -45.4469 19.9589 -93.4485
rradius 56.7481 -0 0
rwrist -27.1228 0 0
rhand -31.0013 -34.4476 -0.0117355
rfingers 7.12502 -0 0
rthumb -4.28439 -64.3834 -0.0113958
39
root 8.23116 15.6929 -31.0859 7.79425 -8.487 -6.6392
lfemur -44.5341 9.20206 -12.7051
ltibia 36.3897 -0 0
lfoot 0.701477 7.05519 0.00224963
ltoes -4.26866 0 0
rfemur 23.9682 5.99062 27.9955
rtibia -0.862087 0 0
rfoot -1.94766 1.33666 -0.0569046
rtoes -27.9425 0 0
lowerback -8.5945 1.26991 2.70172
upperback -1.21963 1.27434 4.02361
thorax 3.51626 0.642762 2.80378
lowerneck -21.0359 -4.73154 -12.5534
upperneck 15.6219 -5.77883 14.8914
head 9.21186 -1.91804 6.48276
lclavicle -3.14018e-14 -4.8901e-14 0
lhumerus -44.369 -6.63203 91.6752
lradius 23.234 -0 0
lwrist 0.0438194 0 0
lhand 6.35178 -17.4871 0.0174464
lfingers 7.12502 -0 0
lthumb 31.6554 9.75586 0.00874495
rclavicle -3.14018e-14 -4.8901e-14 0
rhumerus -45.5589 19.9421 -93.5854
rradius 56.6129 -0 0
rwrist -27.0492 0 0
rhand -30.9579 -34.5108 -0.00846441
rfingers 7.12502 -0 0
rthumb -4.24245 -64.4478 -0.00821976
40
root 8.25129 15.685 -30.9374 7.77376 -8.64345 -6.60214
lfemur -44.3242 9.15456 -12.7677
ltibia 36.1776 -0 0
lfoot 0.802837 7.055 0.00214011
ltoes -4.11022 0 0
rfemur 24.0735 6.01789 27.8539
rtibia -0.682837 0 0
rfoot -2.12446 1.22642 -0.0394898
rtoes -28.2454 0 0
lowerback -8.6332 1.26332 2.66782
upperback -1.21745 1.26625 4.03409
thorax 3.5412 0.63803 2.83411
lowerneck -21.0882 -4.71678 -12.5319
upperneck 15.6939 -5.7534 14.8291
head 9.23881 -1.90862 6.46261
lclavicle -3.14018e-14 -4.8901e-14 0
lhumerus -44.3488 -6.75384 91.7373
lradius 23.1992 -0 0
lwrist -0.0592615 0 0
lhand 6.52238 -17.4479 0.00921116
lfingers 7.12502 -0 0
lthumb 31.8193 9.77647 0.00445721
rclavicle -3.14018e-14 -4.8901e-14 0
rhumerus -45.6573 19.9158 -93.7016
rradius 56.4608 -0 0
rwrist -26.9728 0 0
rhand -30.9178 -34.5487 -0.00538886
rfingers 7.12502 -0 0
rthumb -4.20381 -64.4866 -0.00523333
41
root 8.27143 15.6771 -30.7888 7.74766 -8.78219 -6.55035
lfemur -44.0789 9.09219 -12.8496
ltibia 35.9694 -0 0
lfoot 0.861284 7.05929 0.00140049
ltoes -3.96153 0 0
rfemur 24.0711 6.04154 27.7034
rtibia -0.397065 0 0
rfoot -2.31322 1.09974 -0.0205057
rtoes -28.4824 0 0
lowerback -8.661 1.25199 2.62431
upperback -1.21614 1.25351 4.04053
thorax 3.5594 0.63093 2.86518
lowerneck -21.1378 -4.70205 -12.511
upperneck 15.7667 -5.7283 14.7673
head 9.26574 -1.89949 6.44271
lclavicle -3.14018e-14 -4.8901e-14 0
lhumerus -44.2962 -6.87724 91.7858
lradius 23.1754 -0 0
lwrist -0.147838 0 0
lhand 6.64229 -17.4239 0.00332907
lfingers 7.12502 -0 0
lthumb 31.9345 9.78818 0.0015057
rclavicle -3.14018e-14 -4.8901e-14 0
rhumerus -45.7414 19.8799 -93.7962
rradius 56.2911 -0 0
rwrist -26.8937 0 0
rhand -30.8814 -34.5599 -0.00255355
rfingers 7.12502 -0 0
rthumb -4.16865 -64.4986 -0.00247996
42
root 8.29157 15.6692 -30.6402 7.71568 -8.90229 -6.48317
lfemur -43.7966 9.01449 -12.9519
ltibia 35.7653 0 0
lfoot 0.874761 7.06825 0
ltoes -3.82316 0 0
rfemur 23.9562 6.06094 27.5435
rtibia 9.54166e-15 0 0
rfoot -2.51438 0.955932 0
rtoes -28.6505 0 0
lowerback -8.67737 1.23572 2.57076
upperback -1.21574 1.2359 4.04275
thorax 3.57054 0.621362 2.89699
lowerneck -21.1844 -4.68735 -12.4905
upperneck 15.8404 -5.70357 14.706
head 9.29263 -1.89066 6.42311
lclavicle -3.14018e-14 -4.8901e-14 0
lhumerus -44.2098 -7.00223 91.8201
lradius 23.1631 0 0
lwrist -0.221162 0 0
lhand 6.70904 -17.4156 0
lfingers 7.12502 0 0
lthumb 31.9987 9.79058 0
rclavicle -3.14018e-14 -4.8901e-14 0
rhumerus -45.8105 19.8339 -93.8679
rradius 56.1032 0 0
rwrist -26.8117 0 0
rhand -30.8488 -34.5432 0
rfingers 7.12502 0 0
rthumb -4.13716 -64.4827 0
